<svg width="16" height="12" viewBox="0 0 16 12" fill="none" xmlns="http://www.w3.org/2000/svg">
<path d="M14.6673 3.9549C14.6673 3.55102 14.6673 3.34908 14.5875 3.25557C14.5182 3.17444 14.4142 3.13138 14.3078 3.13975C14.1852 3.1494 14.0424 3.29219 13.7569 3.57777L11.334 6.00065L13.7569 8.42353C14.0424 8.70911 14.1852 8.8519 14.3078 8.86155C14.4142 8.86992 14.5182 8.82687 14.5875 8.74573C14.6673 8.65222 14.6673 8.45028 14.6673 8.0464V3.9549Z" stroke="white" stroke-linecap="round" stroke-linejoin="round"/>
<path d="M1.33398 4.53398C1.33398 3.41388 1.33398 2.85383 1.55197 2.426C1.74372 2.04968 2.04968 1.74372 2.426 1.55197C2.85383 1.33398 3.41388 1.33398 4.53398 1.33398H8.13398C9.25409 1.33398 9.81414 1.33398 10.242 1.55197C10.6183 1.74372 10.9243 2.04968 11.116 2.426C11.334 2.85383 11.334 3.41388 11.334 4.53398V7.46732C11.334 8.58742 11.334 9.14748 11.116 9.5753C10.9243 9.95162 10.6183 10.2576 10.242 10.4493C9.81414 10.6673 9.25409 10.6673 8.13398 10.6673H4.53398C3.41388 10.6673 2.85383 10.6673 2.426 10.4493C2.04968 10.2576 1.74372 9.95162 1.55197 9.5753C1.33398 9.14748 1.33398 8.58742 1.33398 7.46732V4.53398Z" stroke="white" stroke-linecap="round" stroke-linejoin="round"/>
</svg>
