<svg width="13" height="16" viewBox="0 0 13 16" fill="none" xmlns="http://www.w3.org/2000/svg">
<path d="M6.83333 1.33398H8.63333C9.75344 1.33398 10.3135 1.33398 10.7413 1.55197C11.1176 1.74372 11.4236 2.04968 11.6153 2.426C11.8333 2.85383 11.8333 3.41388 11.8333 4.53398V11.4673C11.8333 12.5874 11.8333 13.1475 11.6153 13.5753C11.4236 13.9516 11.1176 14.2576 10.7413 14.4493C10.3135 14.6673 9.75344 14.6673 8.63333 14.6673H4.36667C3.24656 14.6673 2.68651 14.6673 2.25869 14.4493C1.88236 14.2576 1.5764 13.9516 1.38465 13.5753C1.16667 13.1475 1.16667 12.5874 1.16667 11.4673V11.0007M9.16667 8.66732H6.16667M9.16667 6.00065H6.83333M9.16667 11.334H3.83333M2.5 6.66732V3.00065C2.5 2.44837 2.94772 2.00065 3.5 2.00065C4.05228 2.00065 4.5 2.44837 4.5 3.00065V6.66732C4.5 7.77189 3.60457 8.66732 2.5 8.66732C1.39543 8.66732 0.5 7.77189 0.5 6.66732V4.00065" stroke="white" stroke-linecap="round" stroke-linejoin="round"/>
</svg>
