<svg width="16" height="16" viewBox="0 0 16 16" fill="none" xmlns="http://www.w3.org/2000/svg">
<path d="M3.33398 9.52489C2.09974 10.0694 1.33398 10.8281 1.33398 11.6673C1.33398 13.3242 4.31875 14.6673 8.00065 14.6673C11.6826 14.6673 14.6673 13.3242 14.6673 11.6673C14.6673 10.8281 13.9016 10.0694 12.6673 9.52489M12.0007 5.33398C12.0007 8.04312 9.00065 9.33398 8.00065 11.334C7.00065 9.33398 4.00065 8.04312 4.00065 5.33398C4.00065 3.12485 5.79151 1.33398 8.00065 1.33398C10.2098 1.33398 12.0007 3.12485 12.0007 5.33398ZM8.66732 5.33398C8.66732 5.70217 8.36884 6.00065 8.00065 6.00065C7.63246 6.00065 7.33398 5.70217 7.33398 5.33398C7.33398 4.96579 7.63246 4.66732 8.00065 4.66732C8.36884 4.66732 8.66732 4.96579 8.66732 5.33398Z" stroke="white" stroke-linecap="round" stroke-linejoin="round"/>
</svg>
