<svg width="16" height="16" viewBox="0 0 16 16" fill="none" xmlns="http://www.w3.org/2000/svg">
<path d="M9.36709 4.00065C10.0182 4.12769 10.6167 4.44616 11.0858 4.91527C11.5549 5.38439 11.8734 5.98283 12.0004 6.63398M9.36709 1.33398C10.7199 1.48428 11.9815 2.0901 12.9446 3.05199C13.9077 4.01388 14.5151 5.27466 14.6671 6.62732M6.81841 9.2427C6.01736 8.44164 5.38483 7.53588 4.92084 6.56947C4.88092 6.48634 4.86097 6.44478 4.84564 6.39219C4.79115 6.20528 4.83029 5.97578 4.94363 5.81749C4.97552 5.77295 5.01363 5.73485 5.08984 5.65864C5.32291 5.42557 5.43944 5.30903 5.51563 5.19185C5.80296 4.74992 5.80296 4.1802 5.51563 3.73827C5.43944 3.62109 5.32291 3.50455 5.08984 3.27148L4.95992 3.14157C4.60563 2.78727 4.42848 2.61013 4.23823 2.5139C3.85985 2.32252 3.41301 2.32252 3.03464 2.5139C2.84438 2.61013 2.66723 2.78727 2.31294 3.14157L2.20785 3.24666C1.85477 3.59974 1.67823 3.77628 1.54339 4.0163C1.39378 4.28264 1.28621 4.6963 1.28712 5.00178C1.28793 5.27708 1.34134 5.46523 1.44814 5.84153C2.02212 7.86379 3.1051 9.77203 4.69709 11.364C6.28908 12.956 8.19732 14.039 10.2196 14.613C10.5959 14.7198 10.784 14.7732 11.0593 14.774C11.3648 14.7749 11.7785 14.6673 12.0448 14.5177C12.2848 14.3829 12.4614 14.2063 12.8145 13.8533L12.9195 13.7482C13.2738 13.3939 13.451 13.2167 13.5472 13.0265C13.7386 12.6481 13.7386 12.2013 13.5472 11.8229C13.451 11.6326 13.2738 11.4555 12.9195 11.1012L12.7896 10.9713C12.5566 10.7382 12.44 10.6217 12.3228 10.5455C11.8809 10.2581 11.3112 10.2581 10.8693 10.5455C10.7521 10.6217 10.6355 10.7382 10.4025 10.9713C10.3263 11.0475 10.2882 11.0856 10.2436 11.1175C10.0853 11.2308 9.85582 11.27 9.66892 11.2155C9.61633 11.2001 9.57476 11.1802 9.49164 11.1403C8.52523 10.6763 7.61946 10.0437 6.81841 9.2427Z" stroke="white" stroke-linecap="round" stroke-linejoin="round"/>
</svg>
